<svg width="608" height="625" viewBox="0 0 608 625" fill="none" xmlns="http://www.w3.org/2000/svg">
<path d="M1 624V1H607V624H1Z" stroke="black"/>
<path d="M17.5876 607.362L16 605.724V584.288C16 564.192 16.0495 562.853 16.8928 562.853C17.3401 562.853 20.7628 562.505 24.4348 562.107C50.3377 559.13 66.1669 554.268 73.6594 546.924C78.7705 541.911 82.2436 532.881 84.328 519.185C85.1218 513.827 85.2208 501.223 85.3702 317.477C85.4692 182.16 85.3702 119.241 84.9733 114.279C83.8321 98.2014 80.755 87.0864 75.5449 80.2383C69.541 72.2499 53.4634 66.6429 28.1572 63.6657C23.245 63.0699 18.4813 62.5236 17.5876 62.3751L16 62.1267V19.2048L17.638 17.6172L19.2751 16.0296H578.652L578.9 18.6594C579.098 20.0481 581.878 65.8986 585.152 120.481C588.427 175.064 591.305 222.75 591.554 226.422L592 233.12L590.709 234.51L589.42 235.85H541.685L540.295 226.571C530.917 162.113 507.843 118.844 469.784 94.1325C441.797 75.9714 404.184 65.8482 354.465 63.1194C342.357 62.4741 307.176 62.772 297.351 63.6153C277.899 65.3523 265.246 67.9326 256.662 72.0015C244.902 77.559 238.6 91.3038 236.813 115.519C236.515 119.936 236.317 154.769 236.317 210.692V298.968L261.029 298.72C287.823 298.522 289.858 298.323 302.164 295.395C321.466 290.781 337.147 281.054 348.212 266.863C361.411 249.942 369.996 224.785 373.767 191.687C374.313 186.923 374.76 182.855 374.76 182.657C374.76 182.408 384.337 182.26 395.997 182.26H417.235L418.574 183.648L419.915 185.038V461.477L418.773 462.519C417.632 463.61 417.483 463.61 396.196 463.61C384.386 463.61 374.76 463.461 374.76 463.263C374.76 463.015 374.313 458.847 373.767 453.984C370.889 429.024 365.183 408.332 356.747 392.553C352.331 384.217 348.014 378.312 341.761 372.01C328.711 358.91 312.535 351.566 289.411 348.192C284.945 347.546 278.495 347.299 260.036 347.15L236.317 346.902V424.757C236.317 471.351 236.515 505.342 236.813 509.509C238.203 528.614 242.519 541.515 250.013 548.66C256.512 554.913 270.109 558.982 291.495 561.116C307.226 562.703 334.964 563.15 350.445 562.107C352.232 562.008 355.804 561.76 358.384 561.612C360.965 561.413 367.118 560.867 372.03 560.322C415.299 555.558 448.943 543.401 473.257 523.801C479.609 518.69 490.525 507.475 495.388 501.074C512.358 478.794 524.515 450.014 531.512 415.726C532.355 411.657 533.15 407.787 533.298 407.191L533.547 406.05H580.984L582.374 407.489L583.714 408.878L578.206 497.899C575.228 546.874 572.499 590.739 572.251 595.354C571.953 600.018 571.606 604.981 571.457 606.419L571.209 609H19.1761L17.5876 607.362Z" stroke="black"/>
<path d="M557.303 594C557.499 590.554 558.265 578.103 559.341 560.58L559.342 560.568C560.415 543.109 561.797 520.619 563.233 496.988L563.234 496.98L563.234 496.972L567.932 421.05H545.725C538.314 456.006 525.565 486.205 507.332 510.148C501.727 517.525 489.965 529.607 482.671 535.479C455.419 557.447 418.722 570.271 373.678 575.231C368.576 575.797 362.258 576.358 359.537 576.568L359.389 576.579L359.241 576.588C358.392 576.636 356.648 576.747 354.983 576.853L354.981 576.853C353.464 576.95 352.014 577.042 351.37 577.079C335.042 578.17 306.538 577.709 289.997 576.04C278.782 574.921 269.002 573.242 260.861 570.8C252.905 568.413 245.323 564.952 239.637 559.493C227.937 548.318 223.304 530.548 221.853 510.598L221.852 510.588L221.851 510.579C221.503 505.709 221.317 470.862 221.317 424.757V331.745L260.157 332.15L260.17 332.15C278.265 332.297 285.864 332.523 291.556 333.346L291.577 333.349C317.038 337.064 336.502 345.476 352.388 361.424L352.399 361.435L352.41 361.445C359.749 368.843 364.925 375.951 369.991 385.51C379.141 402.638 385.078 424.034 388.221 448.586C390.675 448.602 393.368 448.61 396.196 448.61C399.683 448.61 402.55 448.61 404.915 448.605V197.26H395.997C393.235 197.26 390.603 197.268 388.201 197.284C384.041 229.99 375.031 256.869 360.042 276.087C346.671 293.234 327.909 304.663 305.652 309.984L305.644 309.986L305.636 309.988C299.327 311.489 294.831 312.494 288.25 313.031C282.178 313.527 274.34 313.622 261.164 313.719L261.139 313.719L221.317 314.12V210.692C221.317 155.238 221.505 119.59 221.847 114.51L221.85 114.463L221.854 114.416C223.701 89.3787 230.538 67.7563 250.253 58.4395C261.39 53.1647 276.31 50.4345 296.017 48.6747L296.042 48.6724L296.068 48.6702C306.729 47.7552 342.622 47.4669 355.263 48.1407L355.275 48.1413L355.287 48.142C406.431 50.9489 446.945 61.4304 477.949 81.5497L477.952 81.5518C520.21 108.989 544.537 155.868 554.604 220.85H576.178C575.231 205.397 572.832 165.605 570.179 121.379C568.542 94.0891 567.029 68.9879 565.901 50.5381C565.423 42.723 565.014 36.1086 564.695 31.0296H31V48.8989C43.7932 50.4556 54.9458 52.735 64.0381 55.9126C73.0226 59.0525 81.8674 63.7048 87.5113 71.1936C95.4358 81.6345 98.743 96.4147 99.9357 113.217C100.189 116.802 100.298 134.697 100.358 166.967C100.42 200.252 100.42 249.828 100.37 317.487V317.489C100.296 409.345 100.233 458.475 100.091 485.306C99.9514 511.43 99.7625 517.357 99.1661 521.383L99.1617 521.413L99.1572 521.442C96.9727 535.796 92.9312 549.033 84.1627 557.633L84.1593 557.637C77.9726 563.701 69.5529 567.658 60.368 570.488C52.159 573.018 42.3494 574.94 31.0062 576.415C31.0014 578.612 31 581.211 31 584.288V594H557.303Z" stroke="black"/>
<path d="M79.4975 579H241.326C237.083 576.71 232.963 573.877 229.264 570.328C213.358 555.127 208.406 532.492 206.892 511.686L206.892 511.681L206.891 511.67L206.89 511.648C206.491 506.076 206.317 470.377 206.317 424.757V210.692C206.317 155.703 206.494 119.244 206.881 113.5L206.888 113.407L206.894 113.314L206.895 113.312C208.744 88.2482 215.731 59.6399 241.538 46.0296H79.2524C86.5311 49.6406 93.8858 54.7382 99.4738 62.1437C110.109 76.1682 113.652 94.606 114.898 112.155L114.899 112.162C115.199 116.422 115.299 135.142 115.358 166.939C115.42 200.244 115.42 249.832 115.37 317.487V317.498V317.501C115.296 409.34 115.234 458.512 115.09 485.386C114.955 510.873 114.799 518.214 114.004 523.581L113.995 523.641L113.987 523.699L113.986 523.701C111.7 538.724 107.087 556.158 94.6674 568.341L94.6662 568.342L94.6639 568.344L94.6593 568.349C90.1133 572.805 84.9057 576.263 79.4975 579Z" stroke="black"/>
<path d="M371.869 285.312C357.429 303.831 337.755 316.432 315.039 323.015C333.45 328.316 349.308 337.079 363.01 350.833L363.015 350.838L363.021 350.843L363.036 350.858L363.051 350.874L363.058 350.881C371.483 359.372 377.518 367.684 383.234 378.465C385.681 383.049 387.904 387.864 389.915 392.888V253.176C385.164 265.098 379.212 275.898 371.871 285.31" stroke="black"/>
<path d="M544.37 559.648C544.371 559.64 544.371 559.633 544.372 559.625C545.444 542.169 546.825 519.692 548.261 496.078L548.261 496.075L548.263 496.046L548.264 496.02L548.269 495.956L550.503 459.848C542.754 481.988 532.405 501.979 519.276 519.222C512.929 527.577 500.318 540.527 492.085 547.156C474.612 561.242 453.937 571.694 430.543 579H543.182C543.509 573.67 543.911 567.124 544.369 559.673L544.37 559.66L544.37 559.648Z" stroke="black"/>
<path d="M550.596 46.0296H435.631C454.271 51.676 471.104 59.2268 486.109 68.9635L486.113 68.9662L486.114 68.9669L486.121 68.971C520.955 91.5886 544.099 125.67 558.021 169.115C557.16 154.825 556.201 138.862 555.206 122.278C553.569 94.9882 552.056 69.8943 550.929 51.4537C550.814 49.5743 550.703 47.7647 550.596 46.0296Z" stroke="black"/>
</svg>
