<svg width="616" height="633" viewBox="0 0 616 633" fill="none" xmlns="http://www.w3.org/2000/svg">
<path d="M21.5876 611.362L20 609.724V588.288C20 568.192 20.0495 566.853 20.8928 566.853C21.3401 566.853 24.7628 566.505 28.4348 566.107C54.3377 563.13 70.1669 558.268 77.6594 550.924C82.7705 545.911 86.2436 536.881 88.328 523.185C89.1218 517.827 89.2208 505.223 89.3702 321.477C89.4692 186.16 89.3702 123.241 88.9733 118.279C87.8321 102.201 84.755 91.0864 79.5449 84.2383C73.541 76.2499 57.4634 70.6429 32.1572 67.6657C27.245 67.0699 22.4813 66.5236 21.5876 66.3751L20 66.1267V23.2048L21.638 21.6172L23.2751 20.0296H582.652L582.9 22.6594C583.098 24.0481 585.878 69.8986 589.152 124.481C592.427 179.064 595.305 226.75 595.554 230.422L596 237.12L594.709 238.51L593.42 239.85H545.685L544.295 230.571C534.917 166.113 511.843 122.844 473.784 98.1325C445.797 79.9714 408.184 69.8482 358.465 67.1194C346.357 66.4741 311.176 66.772 301.351 67.6153C281.899 69.3523 269.246 71.9326 260.662 76.0015C248.902 81.559 242.6 95.3038 240.813 119.519C240.515 123.936 240.317 158.769 240.317 214.692V302.968L265.029 302.72C291.823 302.522 293.858 302.323 306.164 299.395C325.466 294.781 341.147 285.054 352.212 270.863C365.411 253.942 373.996 228.785 377.767 195.687C378.313 190.923 378.76 186.855 378.76 186.657C378.76 186.408 388.337 186.26 399.997 186.26H421.235L422.574 187.648L423.915 189.038V465.477L422.773 466.519C421.632 467.61 421.483 467.61 400.196 467.61C388.386 467.61 378.76 467.461 378.76 467.263C378.76 467.015 378.313 462.847 377.767 457.984C374.889 433.024 369.183 412.332 360.747 396.553C356.331 388.217 352.014 382.312 345.761 376.01C332.711 362.91 316.535 355.566 293.411 352.192C288.945 351.546 282.495 351.299 264.036 351.15L240.317 350.902V428.757C240.317 475.351 240.515 509.342 240.813 513.509C242.203 532.614 246.519 545.515 254.013 552.66C260.512 558.913 274.109 562.982 295.495 565.116C311.226 566.703 338.964 567.15 354.445 566.107C356.232 566.008 359.804 565.76 362.384 565.612C364.965 565.413 371.118 564.867 376.03 564.322C419.299 559.558 452.943 547.401 477.257 527.801C483.609 522.69 494.525 511.475 499.388 505.074C516.358 482.794 528.515 454.014 535.512 419.726C536.355 415.657 537.15 411.787 537.298 411.191L537.547 410.05H584.984L586.374 411.489L587.714 412.878L582.206 501.899C579.228 550.874 576.499 594.739 576.251 599.354C575.953 604.018 575.606 608.981 575.457 610.419L575.209 613H23.1761L21.5876 611.362Z" stroke="black"/>
<path d="M561.303 598C561.499 594.554 562.265 582.103 563.341 564.58L563.342 564.568C564.415 547.109 565.797 524.619 567.233 500.988L567.234 500.98L567.234 500.972L571.932 425.05H549.725C542.314 460.006 529.565 490.205 511.332 514.148C505.727 521.525 493.965 533.607 486.671 539.479C459.419 561.447 422.722 574.271 377.678 579.231C372.576 579.797 366.258 580.358 363.537 580.568L363.389 580.579L363.241 580.588C362.392 580.636 360.648 580.747 358.983 580.853L358.981 580.853C357.464 580.95 356.014 581.042 355.37 581.079C339.042 582.17 310.538 581.709 293.997 580.04C282.782 578.921 273.002 577.242 264.861 574.8C256.905 572.413 249.323 568.952 243.637 563.493C231.937 552.318 227.304 534.548 225.853 514.598L225.852 514.588L225.851 514.579C225.503 509.709 225.317 474.862 225.317 428.757V335.745L264.157 336.15L264.17 336.15C282.265 336.297 289.864 336.523 295.556 337.346L295.577 337.349C321.038 341.064 340.502 349.476 356.388 365.424L356.399 365.435L356.41 365.445C363.749 372.843 368.925 379.951 373.991 389.51C383.141 406.638 389.078 428.034 392.221 452.586C394.675 452.602 397.368 452.61 400.196 452.61C403.683 452.61 406.55 452.61 408.915 452.605V201.26H399.997C397.235 201.26 394.603 201.268 392.201 201.284C388.041 233.99 379.031 260.869 364.042 280.087C350.671 297.234 331.909 308.663 309.652 313.984L309.644 313.986L309.636 313.988C303.327 315.489 298.831 316.494 292.25 317.031C286.178 317.527 278.34 317.622 265.164 317.719L265.139 317.719L225.317 318.12V214.692C225.317 159.238 225.505 123.59 225.847 118.51L225.85 118.463L225.854 118.416C227.701 93.3787 234.538 71.7563 254.253 62.4395C265.39 57.1647 280.31 54.4345 300.017 52.6747L300.042 52.6724L300.068 52.6702C310.729 51.7552 346.622 51.4669 359.263 52.1407L359.275 52.1413L359.287 52.142C410.431 54.9489 450.945 65.4304 481.949 85.5497L481.952 85.5518C524.21 112.989 548.537 159.868 558.604 224.85H580.178C579.231 209.397 576.832 169.605 574.179 125.379C572.542 98.0891 571.029 72.9879 569.901 54.5381C569.423 46.723 569.014 40.1086 568.695 35.0296H35V52.8989C47.7932 54.4556 58.9458 56.735 68.0381 59.9126C77.0226 63.0525 85.8674 67.7048 91.5113 75.1936C99.4358 85.6345 102.743 100.415 103.936 117.217C104.189 120.802 104.298 138.697 104.358 170.967C104.42 204.252 104.42 253.828 104.37 321.487V321.489C104.296 413.345 104.233 462.475 104.091 489.306C103.951 515.43 103.762 521.357 103.166 525.383L103.162 525.413L103.157 525.442C100.973 539.796 96.9312 553.033 88.1627 561.633L88.1593 561.637C81.9726 567.701 73.5529 571.658 64.368 574.488C56.159 577.018 46.3494 578.94 35.0062 580.415C35.0014 582.612 35 585.211 35 588.288V598H561.303Z" stroke="black"/>
<path d="M548.37 563.648C548.371 563.64 548.371 563.633 548.372 563.625C549.444 546.169 550.825 523.692 552.261 500.078L552.261 500.075L552.263 500.046L552.264 500.02L552.269 499.956L554.503 463.848C546.754 485.988 536.405 505.979 523.276 523.222C516.929 531.577 504.318 544.527 496.085 551.156C478.612 565.242 457.937 575.694 434.543 583H547.182C547.509 577.67 547.911 571.124 548.369 563.673L548.37 563.66L548.37 563.648Z" stroke="black"/>
<path d="M554.596 50.0296H439.631C458.271 55.676 475.104 63.2268 490.109 72.9635L490.113 72.9662L490.114 72.9669L490.121 72.971C524.955 95.5886 548.099 129.67 562.021 173.115C561.16 158.825 560.201 142.862 559.206 126.278C557.569 98.9882 556.056 73.8943 554.929 55.4537C554.814 53.5743 554.703 51.7647 554.596 50.0296Z" stroke="black"/>
<path d="M375.869 289.312C361.429 307.831 341.755 320.432 319.039 327.015C337.45 332.316 353.308 341.079 367.01 354.833L367.015 354.838L367.021 354.843L367.036 354.858L367.051 354.874L367.058 354.881C375.483 363.372 381.518 371.684 387.234 382.465C389.681 387.049 391.904 391.864 393.915 396.888V257.176C389.164 269.098 383.212 279.898 375.871 289.31" stroke="black"/>
<path d="M83.4975 583H245.326C241.083 580.71 236.963 577.877 233.264 574.328C217.358 559.127 212.406 536.492 210.892 515.686L210.892 515.681L210.891 515.67L210.89 515.648C210.491 510.076 210.317 474.377 210.317 428.757V214.692C210.317 159.703 210.494 123.244 210.881 117.5L210.888 117.407L210.894 117.314L210.895 117.312C212.744 92.2482 219.731 63.6399 245.538 50.0296H83.2524C90.5311 53.6406 97.8858 58.7382 103.474 66.1437C114.109 80.1682 117.652 98.606 118.898 116.155L118.899 116.162C119.199 120.422 119.299 139.142 119.358 170.939C119.42 204.244 119.42 253.832 119.37 321.487V321.498V321.501C119.296 413.34 119.234 462.512 119.09 489.386C118.955 514.873 118.799 522.214 118.004 527.581L117.995 527.641L117.987 527.699L117.986 527.701C115.7 542.724 111.087 560.158 98.6674 572.341L98.6662 572.342L98.6639 572.344L98.6593 572.349C94.1133 576.805 88.9057 580.263 83.4975 583Z" stroke="black"/>
<path d="M5 628V5H611V628H5Z" stroke="black"/>
</svg>
